<svg version="1.1" id="Layer_1" xmlns="http://www.w3.org/2000/svg" xmlns:xlink="http://www.w3.org/1999/xlink" x="0px" y="0px"
	 width="100%" viewBox="0 0 336 336" enable-background="new 0 0 336 336" xml:space="preserve">
<path fill="#000000" opacity="1.000000" stroke="none" 
	d="
M134.707993,199.657745 
	C139.548111,195.768417 144.412567,192.631638 149.825577,190.313065 
	C154.637924,188.251801 154.819550,186.577271 151.099457,182.746246 
	C141.152725,172.502899 137.256836,160.420502 141.296494,146.571381 
	C145.200211,133.188217 154.362427,124.812820 167.938171,121.462708 
	C182.599030,117.844810 199.011780,124.878014 206.648819,137.945251 
	C214.779602,151.857315 213.285690,169.466858 202.345764,180.479874 
	C194.509201,188.368774 196.910019,187.719452 204.451828,191.596695 
	C225.861252,202.603226 237.356018,220.405045 240.201736,244.109512 
	C240.714096,248.377396 239.351730,250.107040 234.825302,250.093521 
	C195.515320,249.976105 156.204773,249.988251 116.894638,250.076126 
	C112.711937,250.085464 111.312576,248.469681 111.623985,244.407837 
	C112.717361,230.146317 117.811836,217.597198 127.333557,206.913544 
	C129.544662,204.432602 132.058487,202.221451 134.707993,199.657745 
z"/>
<path fill="#000000" opacity="1.000000" stroke="none" 
	d="
M273.706940,139.469406 
	C270.817230,145.287735 266.434998,149.398758 262.003601,153.442856 
	C262.939819,155.601349 264.967041,155.728851 266.533813,156.430557 
	C290.229706,167.042877 303.046539,185.482986 306.095673,211.055130 
	C306.562225,214.968170 305.176788,216.404922 301.176727,216.379700 
	C280.853027,216.251541 260.527985,216.314651 240.203506,216.346558 
	C237.935608,216.350128 236.018661,216.078629 234.669281,213.855835 
	C227.569702,202.160965 217.838776,193.315674 205.529892,187.318802 
	C204.932892,187.027939 204.369507,186.668045 203.472443,186.160324 
	C207.666077,181.162598 211.395172,176.680054 213.327759,171.143219 
	C214.308945,168.332138 215.375381,165.422607 215.579437,162.500061 
	C215.850555,158.617188 216.957443,155.699036 222.070129,154.166245 
	C214.276443,149.218033 214.201950,140.409760 209.377472,134.427567 
	C205.413330,129.512192 205.118271,124.038559 205.920013,118.356041 
	C208.440933,100.488174 223.052368,87.668091 241.327667,87.057564 
	C257.921234,86.503212 273.289185,98.703323 276.801514,115.786636 
	C278.436523,123.739220 277.703247,131.710114 273.706940,139.469406 
z"/>
<path fill="#000000" opacity="1.000000" stroke="none" 
	d="
M145.296539,128.823059 
	C139.444489,136.854309 138.119705,147.087845 130.165787,153.953049 
	C133.943863,155.580643 135.542877,158.074661 135.903244,161.691116 
	C136.740463,170.093277 140.444122,177.256592 146.068329,183.484268 
	C146.605042,184.078552 146.962753,184.834534 147.335754,185.410690 
	C146.723495,187.545288 144.864655,187.782547 143.472794,188.550797 
	C133.067642,194.294052 124.324539,201.880844 118.151749,212.092789 
	C116.151688,215.401596 113.795547,216.445923 110.042351,216.412689 
	C90.883919,216.243073 71.723183,216.337555 52.563248,216.332291 
	C45.513680,216.330353 44.782341,215.642059 45.839279,208.501968 
	C49.402225,184.432739 62.095722,167.073578 84.257973,156.788269 
	C85.897903,156.027206 87.560234,155.314392 89.138000,154.612122 
	C89.206451,151.844498 87.044548,151.009247 85.719849,149.695023 
	C74.770683,138.832550 70.909355,125.913200 76.029419,111.342659 
	C81.205917,96.611511 92.325569,88.646622 107.902527,87.123154 
	C125.305305,85.421104 143.052032,99.646889 145.300034,117.028824 
	C145.790817,120.823746 146.472061,124.618591 145.296539,128.823059 
z"/>
</svg>