<svg version="1.1" id="Layer_1" xmlns="http://www.w3.org/2000/svg" xmlns:xlink="http://www.w3.org/1999/xlink" x="0px" y="0px"
	 width="100%" viewBox="0 0 225 225" enable-background="new 0 0 225 225" xml:space="preserve">
<path fill="#FEFEFE" opacity="1.000000" stroke="none" 
	d="
M137.000000,226.000000 
	C91.333336,226.000000 46.166672,226.000000 1.000006,226.000000 
	C1.000004,151.000000 1.000004,76.000015 1.000002,1.000016 
	C75.999992,1.000011 150.999985,1.000011 225.999969,1.000005 
	C225.999985,75.999985 225.999985,150.999969 226.000000,225.999969 
	C196.500000,226.000000 167.000000,226.000000 137.000000,226.000000 
M35.329086,165.160019 
	C37.135628,167.686874 38.942165,170.213730 41.102207,173.235031 
	C35.018955,179.175034 28.977623,185.120850 22.880419,191.008804 
	C19.632486,194.145294 18.735167,197.917236 20.468727,201.921463 
	C22.158463,205.824432 25.579031,207.146851 29.838911,207.132629 
	C58.984955,207.035278 88.131416,207.063858 117.277733,207.041824 
	C118.775482,207.040695 120.280197,207.023727 121.769867,206.886276 
	C175.152969,201.960907 213.066223,154.396790 206.212601,100.966103 
	C199.478897,48.470295 149.174255,11.670706 97.174149,21.200674 
	C30.982031,33.331589 -1.327266,107.759338 35.329086,165.160019 
z"/>
<path fill="#020202" opacity="1.000000" stroke="none" 
	d="
M35.140720,164.847473 
	C-1.327266,107.759338 30.982031,33.331589 97.174149,21.200674 
	C149.174255,11.670706 199.478897,48.470295 206.212601,100.966103 
	C213.066223,154.396790 175.152969,201.960907 121.769867,206.886276 
	C120.280197,207.023727 118.775482,207.040695 117.277733,207.041824 
	C88.131416,207.063858 58.984955,207.035278 29.838911,207.132629 
	C25.579031,207.146851 22.158463,205.824432 20.468727,201.921463 
	C18.735167,197.917236 19.632486,194.145294 22.880419,191.008804 
	C28.977623,185.120850 35.018955,179.175034 41.102207,173.235031 
	C38.942165,170.213730 37.135628,167.686874 35.140720,164.847473 
M56.336620,183.818741 
	C54.956394,185.240051 53.576164,186.661377 52.249832,188.027191 
	C75.715454,188.027191 98.588341,189.149521 121.311600,187.783325 
	C162.991821,185.277359 194.864639,143.311783 187.722015,101.980721 
	C180.274673,58.886417 140.779404,31.663496 97.897575,40.067371 
	C61.031796,47.292236 34.621521,83.587273 38.787651,120.813072 
	C40.726830,138.140259 47.591450,152.964615 59.396984,165.649704 
	C64.475929,171.107040 64.418777,175.471039 59.312782,180.841919 
	C58.509811,181.686539 57.664413,182.490860 56.336620,183.818741 
z"/>
<path fill="#FCFCFC" opacity="1.000000" stroke="none" 
	d="
M56.587627,183.566284 
	C57.664413,182.490860 58.509811,181.686539 59.312782,180.841919 
	C64.418777,175.471039 64.475929,171.107040 59.396984,165.649704 
	C47.591450,152.964615 40.726830,138.140259 38.787651,120.813072 
	C34.621521,83.587273 61.031796,47.292236 97.897575,40.067371 
	C140.779404,31.663496 180.274673,58.886417 187.722015,101.980721 
	C194.864639,143.311783 162.991821,185.277359 121.311600,187.783325 
	C98.588341,189.149521 75.715454,188.027191 52.249832,188.027191 
	C53.576164,186.661377 54.956394,185.240051 56.587627,183.566284 
M133.500000,104.049347 
	C141.992004,104.048912 150.484131,104.074318 158.975998,104.039635 
	C165.428879,104.013290 169.631958,100.327217 169.655579,94.768814 
	C169.678375,89.404449 165.679367,85.609818 159.438293,85.595322 
	C128.800629,85.524162 98.162491,85.515518 67.525330,85.658623 
	C65.207458,85.669449 62.515926,86.519745 60.663639,87.883682 
	C57.223156,90.417091 56.506500,94.286575 58.100876,98.198853 
	C59.771095,102.297218 63.067848,104.091553 67.561203,104.078125 
	C89.207306,104.013435 110.853706,104.049210 133.500000,104.049347 
M124.906319,141.200424 
	C130.499741,138.987259 132.738007,135.699753 132.003738,130.775940 
	C131.296600,126.034050 127.548065,122.986458 122.020378,122.970421 
	C103.863098,122.917740 85.705429,122.912781 67.548187,122.973503 
	C61.430180,122.993958 57.403683,126.765038 57.338879,132.221832 
	C57.275513,137.557922 61.361443,141.396072 67.554131,141.412903 
	C86.376747,141.464050 105.199722,141.388275 124.906319,141.200424 
z"/>
<path fill="#010101" opacity="1.000000" stroke="none" 
	d="
M133.000000,104.049347 
	C110.853706,104.049210 89.207306,104.013435 67.561203,104.078125 
	C63.067848,104.091553 59.771095,102.297218 58.100876,98.198853 
	C56.506500,94.286575 57.223156,90.417091 60.663639,87.883682 
	C62.515926,86.519745 65.207458,85.669449 67.525330,85.658623 
	C98.162491,85.515518 128.800629,85.524162 159.438293,85.595322 
	C165.679367,85.609818 169.678375,89.404449 169.655579,94.768814 
	C169.631958,100.327217 165.428879,104.013290 158.975998,104.039635 
	C150.484131,104.074318 141.992004,104.048912 133.000000,104.049347 
z"/>
<path fill="#010101" opacity="1.000000" stroke="none" 
	d="
M124.464432,141.281174 
	C105.199722,141.388275 86.376747,141.464050 67.554131,141.412903 
	C61.361443,141.396072 57.275513,137.557922 57.338879,132.221832 
	C57.403683,126.765038 61.430180,122.993958 67.548187,122.973503 
	C85.705429,122.912781 103.863098,122.917740 122.020378,122.970421 
	C127.548065,122.986458 131.296600,126.034050 132.003738,130.775940 
	C132.738007,135.699753 130.499741,138.987259 124.464432,141.281174 
z"/>
</svg>